<svg width="231" height="58" viewBox="0 0 231 58" fill="none" xmlns="http://www.w3.org/2000/svg">
<g clip-path="url(#clip0_69_1200)">
<path opacity="0.07" d="M47.1727 41.5715C46.9239 41.2603 46.6702 40.9482 46.4088 40.6352C46.8591 40.0961 47.2901 39.559 47.7033 39.0264V35.4445C46.8949 36.5966 45.9926 37.7953 44.9933 39.0054C44.3034 38.2422 43.5751 37.4815 42.8094 36.7311C43.1112 35.6837 43.3754 34.6469 43.6054 33.6278C45.0675 34.1621 46.4384 34.7377 47.7033 35.3215V32.9459C46.5572 32.4395 45.3358 31.9446 44.0462 31.4816C44.4041 29.5562 44.647 27.716 44.807 26.0102C45.8493 25.9377 46.8201 25.8997 47.7033 25.8847V23.7092C46.8646 23.722 45.9517 23.7546 44.9747 23.8167C45.2659 18.8806 44.8906 15.4861 44.8547 15.1801L44.8537 15.1722C44.1772 14.5032 43.395 13.8522 42.5183 13.2073L41.9685 13.4503C41.6952 13.5711 38.6757 14.9309 34.7034 17.6609C32.5785 13.2353 30.6188 10.4907 30.4402 10.2443L29.1338 8.44053C28.9538 8.19181 28.5942 8.19181 28.4141 8.44053L27.1076 10.2443C26.9291 10.4907 24.9692 13.2354 22.8441 17.6612C18.8721 14.9314 15.8529 13.5717 15.5796 13.4509L15.0293 13.2077C14.1528 13.8525 13.3709 14.5034 12.6944 15.1722L12.6935 15.1808C12.6575 15.4868 12.2821 18.8811 12.5734 23.8171C11.5964 23.755 10.6835 23.7224 9.84496 23.7096V25.885C10.7281 25.9001 11.6988 25.9381 12.741 26.0106C12.901 27.7163 13.1439 29.5565 13.5018 31.4818C12.2122 31.9447 10.9909 32.4397 9.84496 32.946V35.3216C11.1097 34.7378 12.4807 34.1623 13.9426 33.628C14.1726 34.6471 14.4368 35.6838 14.7386 36.7311C13.9728 37.4815 13.2447 38.2421 12.5547 39.0054C11.5555 37.7953 10.6532 36.5967 9.84496 35.4447V39.0266C10.2581 39.5591 10.6891 40.0962 11.1392 40.6352C10.8778 40.9482 10.6242 41.2603 10.3753 41.5715M31.8294 28.7962C31.7401 28.7514 31.6507 28.7079 31.5614 28.6639C31.6721 28.6252 31.7828 28.5861 31.8934 28.5484C31.971 28.6385 32.0482 28.7297 32.1253 28.8207C32.0267 28.8125 31.9283 28.8038 31.8294 28.7962ZM35.1431 29.1823C34.7972 28.7315 34.4464 28.2907 34.0914 27.8604C34.7954 27.659 35.4932 27.4774 36.1826 27.3132C36.3904 28.0151 36.5878 28.7332 36.7719 29.4669C36.2354 29.3629 35.6922 29.2679 35.1431 29.1823ZM37.1221 31.9684C37.0663 31.8832 37.01 31.7992 36.9538 31.7146C37.0683 31.7386 37.183 31.7623 37.2969 31.787C37.3207 31.9053 37.3435 32.0243 37.3667 32.1432C37.2853 32.0849 37.2042 32.0263 37.1221 31.9684ZM38.243 26.8682C39.7928 26.5669 41.282 26.3511 42.6792 26.1997C42.5334 27.6502 42.3255 29.196 42.0353 30.8048C41.0702 30.5019 40.0731 30.2212 39.0483 29.9688C38.8052 28.9051 38.5347 27.8701 38.243 26.8682ZM40.3056 37.7413C40.2631 37.6485 40.2212 37.5556 40.178 37.4628C40.1707 37.3601 40.1623 37.258 40.1544 37.1557C40.2421 37.2359 40.33 37.316 40.4168 37.3966C40.3805 37.5114 40.3428 37.6264 40.3056 37.7413ZM39.806 34.0228C39.7235 33.4528 39.632 32.8889 39.5318 32.332C40.2386 32.5231 40.9305 32.7281 41.6067 32.9437C41.4485 33.6594 41.2737 34.3839 41.0796 35.1148C40.665 34.7462 40.2404 34.382 39.806 34.0228ZM43.592 40.6352C43.1103 41.173 42.6099 41.7095 42.0898 42.2419C41.9083 41.7075 41.7159 41.1717 41.5128 40.6353C41.7159 40.0988 41.9084 39.563 42.0898 39.0286C42.6099 39.561 43.1103 40.0975 43.592 40.6352ZM42.2072 15.7147C42.4913 15.5757 42.8203 15.7729 42.8464 16.0979C42.9452 17.3299 43.1058 20.2096 42.8618 23.9908C41.2186 24.1569 39.4458 24.4091 37.591 24.7807C36.9737 22.9276 36.2978 21.2078 35.6147 19.6475C38.6472 17.5375 41.1299 16.2419 42.2072 15.7147ZM35.5237 25.2384C34.5419 25.4771 33.5434 25.7514 32.5344 26.0647C31.8116 25.2697 31.0789 24.5138 30.3437 23.7975C31.5406 22.7323 32.7263 21.7725 33.8633 20.9162C34.4356 22.2479 35.0002 23.6946 35.5237 25.2384ZM28.4057 12.0803C28.5844 11.813 28.9633 11.813 29.142 12.0803C29.8206 13.0951 31.3471 15.506 32.9575 18.9084C31.6145 19.9052 30.2008 21.0437 28.7736 22.3281C27.3466 21.0438 25.933 19.9054 24.5901 18.9087C26.2005 15.5062 27.7271 13.0951 28.4057 12.0803ZM15.4581 42.2418C14.938 41.7095 14.4378 41.1729 13.9561 40.6352C14.4378 40.0975 14.938 39.561 15.4581 39.0287C15.6395 39.5631 15.8319 40.0988 16.035 40.6352C15.8319 41.1716 15.6395 41.7074 15.4581 42.2418ZM17.3697 37.463C17.3265 37.5557 17.2847 37.6485 17.2423 37.7412C17.205 37.6263 17.1674 37.5114 17.1311 37.3966C17.2178 37.3161 17.3056 37.2361 17.3933 37.1559C17.3854 37.2583 17.377 37.3604 17.3697 37.463ZM17.7416 34.023C17.3075 34.3821 16.8828 34.7463 16.4683 35.1148C16.2742 34.3839 16.0994 33.6596 15.9413 32.9439C16.6174 32.7283 17.3091 32.5233 18.0159 32.3322C17.9155 32.8892 17.8241 33.453 17.7416 34.023ZM18.4993 29.969C17.4747 30.2214 16.4777 30.5021 15.5126 30.805C15.2224 29.1963 15.0147 27.6505 14.8689 26.2001C16.266 26.3515 17.7551 26.5672 19.3046 26.8684C19.0129 27.8704 18.7424 28.9053 18.4993 29.969ZM14.6862 23.9911C14.4422 20.2085 14.603 17.3281 14.7018 16.097C14.7279 15.7728 15.0561 15.5761 15.3395 15.7148C16.416 16.2414 18.8993 17.5371 21.9328 19.6479C21.2497 21.2081 20.5738 22.9279 19.9566 24.781C18.1019 24.4094 16.3293 24.1573 14.6862 23.9911ZM20.4253 31.9686C20.3433 32.0265 20.2624 32.085 20.1811 32.1433C20.2041 32.0244 20.2269 31.9054 20.2508 31.7872C20.3646 31.7625 20.4792 31.7388 20.5937 31.7149C20.5375 31.7994 20.481 31.8835 20.4253 31.9686ZM22.4043 29.1825C21.8554 29.2681 21.3121 29.363 20.7758 29.4671C20.9598 28.7334 21.1572 28.0153 21.365 27.3135C22.0543 27.4777 22.752 27.6592 23.456 27.8605C23.101 28.2908 22.7502 28.7317 22.4043 29.1825ZM25.7179 28.7963C25.6191 28.8039 25.5206 28.8126 25.4221 28.8208C25.4993 28.7298 25.5764 28.6386 25.654 28.5485C25.7645 28.5862 25.8753 28.6252 25.9861 28.664C25.8966 28.708 25.8072 28.7515 25.7179 28.7963ZM25.0129 26.0648C24.0041 25.7516 23.0056 25.4773 22.0239 25.2386C22.5474 23.6948 23.112 22.2482 23.6842 20.9165C24.8212 21.7727 26.0068 22.7324 27.2037 23.7976C26.4684 24.5139 25.7357 25.2698 25.0129 26.0648ZM28.7737 27.4106C28.2569 27.1998 27.7408 27.0001 27.2261 26.8117C27.7389 26.2719 28.2557 25.7524 28.7737 25.2524C29.2916 25.7524 29.8086 26.2718 30.3213 26.8117C29.8065 27.0001 29.2904 27.1998 28.7737 27.4106Z" fill="#ffffff"/>
<path d="M28.7741 54.2206C25.4985 54.2206 19.598 55.5421 16.2123 57.4034C17.9814 55.4118 24.3854 52.6571 28.7741 52.6571C33.1628 52.6571 39.5668 55.4118 41.3359 57.4034C37.9502 55.5421 32.0497 54.2206 28.7741 54.2206Z" fill="#ffffff"/>
<path d="M37.7477 17.7826C37.8487 17.3321 38.0382 16.9943 38.3162 16.7693C38.5942 16.5442 39.0868 16.3416 39.7944 16.1613V15.215H31.8538V16.1613C32.5992 16.367 33.0981 16.5793 33.3509 16.7982C33.6035 17.0171 33.7835 17.3321 33.891 17.744C33.9982 18.1559 34.0523 18.9214 34.0523 20.0414V26.8752H23.515V20.0414C23.515 19.1535 23.5496 18.4967 23.6194 18.0721C23.6885 17.6475 23.7962 17.329 23.9415 17.1167C24.0866 16.9044 24.2826 16.7276 24.5289 16.5859C24.7753 16.4442 25.1762 16.303 25.7324 16.1613V15.215H17.7539V16.1613C18.3348 16.3284 18.7454 16.4797 18.9855 16.6148C19.2254 16.75 19.4183 16.9303 19.5637 17.1553C19.7088 17.3808 19.813 17.6957 19.8763 18.1011C19.9394 18.5064 19.9711 19.1535 19.9711 20.0414V36.7398C19.9711 37.6927 19.93 38.4003 19.848 38.8635C19.7656 39.3268 19.5921 39.6838 19.3269 39.9347C19.0613 40.1862 18.537 40.4148 17.7539 40.6205V41.5662H25.7324V40.6205C25.151 40.466 24.7309 40.3116 24.4721 40.1572C24.213 40.0023 24.0173 39.8093 23.8847 39.5777C23.752 39.346 23.6573 39.0311 23.6005 38.6319C23.5434 38.2332 23.515 37.6023 23.515 36.7398V28.6514H34.0522V36.7398C34.0522 37.8085 33.9982 38.5679 33.891 39.0179C33.7835 39.4685 33.5908 39.8032 33.313 40.0216C33.0351 40.241 32.5484 40.4401 31.8538 40.6205V41.5662H39.7944V40.6205C39.3018 40.492 38.9385 40.3696 38.7048 40.2537C38.4708 40.1379 38.2907 40.0094 38.1646 39.8672C38.0382 39.726 37.9307 39.5426 37.8424 39.3171C37.754 39.0921 37.6909 38.7929 37.653 38.4196C37.6151 38.0462 37.5962 37.4865 37.5962 36.7398V20.0414C37.5962 18.9864 37.6465 18.2331 37.7477 17.7826Z" fill="#ffffff"/>
<path d="M26.9561 48.7196C15.3984 42.3693 4.73441 42.6905 4.73441 42.6905L0.370705 40.2046C10.3801 39.5661 21.4792 43.4963 26.9561 48.7196ZM5.26694 44.1426L9.1254 46.437C9.1254 46.437 18.5546 46.1405 28.7741 52.0016C23.9314 47.1806 14.517 44.0797 5.26694 44.1426ZM28.7741 52.0016C38.9936 46.1405 48.4228 46.437 48.4228 46.437L52.2813 44.1426C43.0312 44.0797 33.6168 47.1806 28.7741 52.0016ZM30.5922 48.7196C42.1499 42.3693 52.8138 42.6905 52.8138 42.6905L57.1775 40.2046C47.1681 39.5661 36.069 43.4963 30.5922 48.7196Z" fill="#ffffff"/>
<path d="M28.7741 4.86124C26.7893 6.25726 24.5065 7.51364 22.1269 8.82147C14.9354 12.7737 9.84491 15.955 9.84491 20.9193V20.9707V39.6271C8.64839 39.3266 7.53073 39.1785 6.54661 39C6.54661 39 6.54661 30.3196 6.54661 20.8982C6.54661 10.1396 22.0909 6.55335 28.7741 0.596584C35.4573 6.55335 51.0016 10.1396 51.0016 20.8982V39C50.0175 39.1785 48.8999 39.3266 47.7033 39.6271V20.9707V20.9193C47.7033 15.955 42.6128 12.7737 35.4214 8.82147C33.0418 7.51364 30.7589 6.25726 28.7741 4.86124Z" fill="#ffffff"/>
<path d="M82.2185 21.5929C82.2185 22.5608 82.2597 23.2233 82.3431 23.5812C82.4258 23.9396 82.5946 24.2382 82.8495 24.4764C83.1044 24.7157 83.5697 24.9166 84.2456 25.0797V26.3236H74.264V25.0797C75.0034 24.891 75.4813 24.7029 75.6982 24.5142C75.915 24.3261 76.0677 24.0593 76.1572 23.7131C76.2461 23.368 76.291 22.6609 76.291 21.5929V14.035H67.6482V21.5929C67.6482 22.0332 67.6606 22.4411 67.6863 22.8179C67.7117 23.1952 67.7628 23.503 67.8394 23.7418C67.9159 23.9805 68.0274 24.1814 68.1739 24.3445C68.3204 24.5081 68.5211 24.6498 68.7764 24.7689C69.0313 24.8885 69.3435 24.9917 69.7134 25.0797V26.3236H59.6745V25.0797C60.1459 24.9545 60.5189 24.8189 60.793 24.6748C61.0672 24.5301 61.2713 24.3292 61.4051 24.0715C61.5389 23.8138 61.625 23.4871 61.6631 23.0914C61.7015 22.6957 61.7204 22.1962 61.7204 21.5929V5.34616C61.7204 4.75567 61.7043 4.25982 61.6727 3.85741C61.6408 3.45561 61.5581 3.12891 61.424 2.87733C61.2902 2.62636 61.0864 2.42179 60.8122 2.26486C60.5381 2.10792 60.159 1.96625 59.6745 1.84046V0.596581H69.7134V1.84046C69.0375 2.02915 68.5756 2.23615 68.3269 2.4627C68.0785 2.68864 67.9029 2.98724 67.8013 3.3579C67.699 3.72857 67.6482 4.39783 67.6482 5.36509V11.6602H76.291V5.36509C76.291 4.41066 76.2495 3.7475 76.1668 3.37684C76.0835 3.00617 75.9181 2.70452 75.6697 2.47186C75.4209 2.23982 74.9526 2.02915 74.264 1.84046V0.596581H84.2456V1.84046C83.6843 1.99129 83.2767 2.15189 83.0217 2.32104C82.7665 2.49079 82.585 2.70757 82.4769 2.97137C82.3685 3.23517 82.2981 3.53072 82.2665 3.85741C82.2343 4.1841 82.2185 4.68666 82.2185 5.36509V21.5929Z" fill="#ffffff"/>
<path d="M103.083 18.3917H94.9597L94.3316 20.1729C94.1541 20.6735 94.0084 21.1577 93.8943 21.6268C93.78 22.0952 93.723 22.5921 93.723 23.117C93.723 24.3424 94.3822 24.9985 95.7015 25.086V26.3236H87.5783V25.086C88.0473 25.0362 88.4597 24.874 88.815 24.5988C89.1697 24.3236 89.4933 23.9487 89.7851 23.4736C90.0767 22.9986 90.3873 22.3175 90.7174 21.4293L98.6501 0.596581H103.729L110.007 21.5982C110.286 22.5356 110.521 23.2015 110.711 23.5951C110.902 23.9894 111.149 24.3078 111.453 24.5514C111.758 24.7956 112.182 24.9736 112.728 25.086V26.3236H102.227V25.086C102.886 25.0113 103.374 24.8302 103.692 24.5423C104.008 24.2549 104.167 23.8485 104.167 23.3236C104.167 22.936 104.122 22.5046 104.034 22.0295C103.945 21.5545 103.799 20.9548 103.596 20.2294L103.083 18.3917ZM95.6824 16.1979H102.531L99.4871 5.64088L95.6824 16.1979Z" fill="#ffffff"/>
<path d="M124.57 21.5929C124.57 22.2591 124.589 22.7647 124.627 23.1104C124.665 23.456 124.735 23.7357 124.837 23.9488C124.939 24.1625 125.063 24.3353 125.21 24.4672C125.356 24.5991 125.561 24.7188 125.822 24.825C126.083 24.9325 126.437 25.0168 126.883 25.0797V26.3236H116.596V25.0797C117.067 24.9667 117.44 24.8348 117.714 24.684C117.989 24.5331 118.193 24.3292 118.326 24.0715C118.46 23.8138 118.546 23.4841 118.585 23.0817C118.623 22.6798 118.642 22.1773 118.642 21.574V5.34616C118.642 4.75567 118.626 4.25982 118.594 3.85741C118.562 3.45561 118.479 3.12891 118.345 2.87733C118.212 2.62636 118.008 2.42179 117.734 2.26486C117.459 2.10792 117.08 1.96625 116.596 1.84046V0.596581H135.086V6.59004H132.467C132.046 5.39684 131.689 4.58957 131.396 4.16823C131.102 3.7475 130.752 3.4147 130.344 3.16922C129.936 2.92435 129.241 2.80161 128.26 2.80161H124.57V12.3954H127.017C127.616 12.3954 128.078 12.3044 128.403 12.1218C128.728 11.9399 128.996 11.6352 129.206 11.2077C129.417 10.7809 129.592 10.1776 129.732 9.39838H131.893V17.6164H129.732C129.579 16.8244 129.394 16.2119 129.178 15.7784C128.961 15.3448 128.693 15.0407 128.375 14.8642C128.056 14.6884 127.603 14.6004 127.017 14.6004H124.57V21.5929Z" fill="#ffffff"/>
<path d="M147.724 21.5929C147.724 22.0332 147.736 22.4411 147.762 22.8179C147.787 23.1952 147.838 23.503 147.915 23.7418C147.991 23.9805 148.103 24.1814 148.25 24.3445C148.396 24.5081 148.597 24.6498 148.852 24.7689C149.107 24.8885 149.419 24.9917 149.789 25.0797V26.3236H139.75V25.0797C140.222 24.9545 140.595 24.8189 140.869 24.6748C141.143 24.5301 141.347 24.3292 141.481 24.0715C141.615 23.8138 141.701 23.4871 141.739 23.0914C141.777 22.6957 141.796 22.1962 141.796 21.5929V5.32723C141.796 4.72452 141.78 4.22807 141.748 3.83848C141.716 3.44889 141.634 3.12525 141.5 2.86756C141.366 2.61048 141.162 2.40591 140.888 2.25509C140.614 2.10426 140.235 1.96625 139.75 1.84046V0.596581H149.789V1.84046C149.266 1.97908 148.88 2.12685 148.632 2.28379C148.383 2.44072 148.195 2.63246 148.068 2.8584C147.94 3.08434 147.851 3.37989 147.8 3.74444C147.749 4.109 147.724 4.6427 147.724 5.34616V21.5929Z" fill="#ffffff"/>
<path d="M161.738 24.0807H167.207C167.908 24.0807 168.494 23.9396 168.966 23.6569C169.437 23.3742 169.845 22.9284 170.19 22.3184C170.534 21.7095 170.891 20.6507 171.26 19.143H173.861V26.3236H154.701V25.0797L166.939 2.83947H161.757C160.916 2.83947 160.253 2.9903 159.768 3.29196C159.284 3.59362 158.87 4.07724 158.526 4.74345C158.181 5.40906 157.882 6.2951 157.627 7.40097H155.007V0.596581H173.976V1.84046L161.738 24.0807Z" fill="#ffffff"/>
<path d="M189.623 26.3236C185.961 26.3236 183.212 25.2681 181.375 23.1559C179.537 21.0444 178.619 17.8833 178.619 13.6722C178.619 10.9097 179.064 8.54933 179.955 6.59113C180.845 4.63292 182.156 3.14428 183.887 2.1252C185.619 1.10612 187.68 0.596581 190.072 0.596581C193.796 0.596581 196.592 1.64967 198.46 3.75525C200.329 5.86083 201.263 8.98847 201.263 13.1382C201.263 15.4585 200.985 17.4502 200.432 19.1136C199.877 20.7777 199.089 22.1434 198.068 23.2114C197.047 24.2794 195.823 25.0652 194.397 25.5688C192.97 26.0718 191.379 26.3236 189.623 26.3236ZM184.56 13.1746C184.56 16.8828 185.011 19.6417 185.915 21.4525C186.817 23.2639 188.197 24.169 190.053 24.169C191.012 24.169 191.828 23.9143 192.5 23.4047C193.173 22.8952 193.718 22.1834 194.135 21.2687C194.552 20.3541 194.851 19.2705 195.032 18.0182C195.212 16.7658 195.303 15.3911 195.303 13.8929C195.303 11.4502 195.107 9.40254 194.714 7.75161C194.322 6.10009 193.73 4.85428 192.94 4.013C192.148 3.17232 191.137 2.75168 189.904 2.75168C188.097 2.75168 186.755 3.60191 185.877 5.30176C184.999 7.00281 184.56 9.62689 184.56 13.1746Z" fill="#ffffff"/>
<path d="M230.132 0.596581V1.84046C229.622 2.00411 229.262 2.14212 229.052 2.25509C228.842 2.36866 228.663 2.51888 228.517 2.70757C228.37 2.89626 228.259 3.18204 228.182 3.56492C228.106 3.9484 228.067 4.53584 228.067 5.32723V26.3236H223.21L214.606 11.6602C213.446 9.675 212.591 8.11664 212.043 6.98634H211.872C211.999 9.68782 212.063 12.5401 212.063 15.5427V21.6118C212.063 22.5541 212.11 23.2136 212.206 23.5909C212.302 23.9677 212.474 24.2663 212.722 24.4861C212.971 24.706 213.44 24.9038 214.128 25.0797V26.3236H206.9V25.0797C207.371 24.9545 207.744 24.8159 208.018 24.665C208.293 24.5142 208.496 24.3103 208.631 24.0526C208.764 23.7949 208.85 23.4712 208.889 23.0817C208.927 22.6927 208.946 22.2023 208.946 21.6118V5.30891C208.946 4.36608 208.904 3.71574 208.822 3.35791C208.739 3.00007 208.566 2.70147 208.305 2.46271C208.044 2.22395 207.576 2.01694 206.9 1.84046V0.596581H214.644L221.413 12.1878C221.834 12.9169 222.382 13.9031 223.057 15.147C223.733 16.3908 224.332 17.5663 224.855 18.6716H225.161C225.02 15.6685 224.95 12.3893 224.95 8.83292V5.32723C224.95 4.5108 224.918 3.92031 224.855 3.55575C224.791 3.1912 224.692 2.91519 224.559 2.7265C224.425 2.53781 224.246 2.38088 224.023 2.25509C223.8 2.1299 223.427 1.99129 222.904 1.84046V0.596581H230.132Z" fill="#ffffff"/>
<path d="M74.5641 57.4034V56.4798C75.1924 56.3543 75.6602 56.216 75.9683 56.0652C76.276 55.9144 76.5056 55.7043 76.6565 55.4338C76.807 55.1639 76.8824 54.8024 76.8824 54.3502C76.8824 53.9231 76.832 53.4614 76.7316 52.9647C76.6311 52.4685 76.4867 51.9125 76.2983 51.2967L75.601 48.8654H66.8178L66.1769 50.7126C65.8502 51.6426 65.6365 52.3461 65.5364 52.8236C65.4356 53.3011 65.3855 53.7347 65.3855 54.124C65.3855 54.8778 65.577 55.431 65.9601 55.7825C66.3433 56.1345 66.9311 56.3669 67.7225 56.4798V57.4034H59.6745V56.4798C60.3783 56.3669 60.9907 55.9586 61.5122 55.2549C62.0334 54.5511 62.5393 53.546 63.0294 52.2392L70.8889 31.3748H73.8667L80.2751 52.39C80.5765 53.3701 80.8433 54.1179 81.076 54.6329C81.3083 55.1483 81.588 55.5501 81.9147 55.839C82.2414 56.1284 82.6875 56.3418 83.2529 56.4798V57.4034L74.5641 57.4034ZM67.3268 47.2258H75.205L71.6238 35.0689L67.3268 47.2258Z" fill="#ffffff"/>
<path d="M102.529 32.2133V37.3741H100.684C100.386 36.2936 100.007 35.4337 99.5475 34.7938C99.0879 34.1543 98.5536 33.6976 97.9452 33.4245C97.3367 33.1513 96.6039 33.0146 95.7467 33.0146C94.4673 33.0146 93.3276 33.4402 92.3279 34.2907C91.328 35.1415 90.542 36.4213 89.971 38.129C89.3993 39.8367 89.1138 41.9018 89.1138 44.3239C89.1138 46.7584 89.3495 48.8359 89.8219 50.5563C90.2936 52.2766 90.9893 53.5745 91.9087 54.4501C92.8278 55.326 93.9581 55.7636 95.2997 55.7636C96.318 55.7636 97.1502 55.6178 97.7964 55.326C98.442 55.0341 98.9855 54.5714 99.4265 53.9379C99.8672 53.3044 100.286 52.3726 100.684 51.143H102.529V56.4717C101.361 56.7823 100.165 57.0153 98.9421 57.1704C97.7185 57.3255 96.3739 57.4034 94.9082 57.4034C91.7533 57.4034 89.3682 56.3353 87.7538 54.1987C86.139 52.0623 85.3317 48.8763 85.3317 44.6405C85.3317 41.9827 85.7509 39.6538 86.5894 37.6536C87.4278 35.654 88.6602 34.1075 90.2876 33.0146C91.9147 31.9217 93.8585 31.3748 96.1194 31.3748C97.2495 31.3748 98.2929 31.4339 99.2496 31.552C100.206 31.67 101.299 31.8903 102.529 32.2133Z" fill="#ffffff"/>
<path d="M119.704 57.4034V56.4798C120.332 56.3543 120.8 56.216 121.108 56.0652C121.416 55.9144 121.646 55.7043 121.796 55.4338C121.947 55.1639 122.022 54.8024 122.022 54.3502C122.022 53.9231 121.972 53.4614 121.871 52.9647C121.771 52.4685 121.627 51.9125 121.438 51.2967L120.741 48.8654H111.958L111.317 50.7126C110.99 51.6426 110.776 52.3461 110.676 52.8236C110.576 53.3011 110.525 53.7347 110.525 54.124C110.525 54.8778 110.717 55.431 111.1 55.7825C111.483 56.1345 112.071 56.3669 112.862 56.4798V57.4034H104.814V56.4798C105.518 56.3669 106.131 55.9586 106.652 55.2549C107.173 54.5511 107.679 53.546 108.169 52.2392L116.029 31.3748H119.007L125.415 52.39C125.716 53.3701 125.983 54.1179 126.216 54.6329C126.448 55.1483 126.728 55.5501 127.055 55.839C127.381 56.1284 127.827 56.3418 128.393 56.4798V57.4034L119.704 57.4034ZM112.467 47.2258H120.345L116.764 35.0689L112.467 47.2258Z" fill="#ffffff"/>
<path d="M130.889 57.4034V56.469C131.474 56.3164 131.893 56.1706 132.148 56.0303C132.402 55.8907 132.599 55.7128 132.739 55.4966C132.879 55.2806 132.98 54.9693 133.044 54.5621C133.108 54.1556 133.14 53.5134 133.14 52.6361V36.1421C133.14 35.2521 133.108 34.6068 133.044 34.2065C132.98 33.8062 132.875 33.4979 132.73 33.2816C132.583 33.0657 132.389 32.8909 132.148 32.7571C131.906 32.6237 131.487 32.4745 130.889 32.3092V31.3748H139.242C141.644 31.3748 143.611 31.6389 145.143 32.1662C146.675 32.6938 147.968 33.4722 149.024 34.5021C150.079 35.5317 150.867 36.8127 151.388 38.3442C151.909 39.8764 152.17 41.7038 152.17 43.8266C152.17 45.975 151.925 47.8661 151.436 49.4996C150.946 51.133 150.231 52.5027 149.291 53.6089C148.477 54.5751 147.479 55.3696 146.297 55.9924C145.318 56.5008 144.186 56.8631 142.903 57.0794C141.619 57.2956 139.915 57.4034 137.792 57.4034L130.889 57.4034ZM136.705 55.63C137.214 55.681 137.964 55.7063 138.956 55.7063C140.023 55.7063 140.977 55.6177 141.816 55.4394C142.655 55.2615 143.418 54.9816 144.104 54.6005C144.79 54.219 145.407 53.6883 145.954 53.0081C146.5 52.3282 146.945 51.5463 147.288 50.6626C147.632 49.7791 147.882 48.7971 148.042 47.7166C148.2 46.6364 148.28 45.4539 148.28 44.1698C148.28 41.5892 147.908 39.4695 147.165 37.8104C146.421 36.1513 145.372 34.9407 144.018 34.1778C142.664 33.4151 141.046 33.0336 139.165 33.0336C138.301 33.0336 137.48 33.0592 136.705 33.1099L136.705 55.63Z" fill="#ffffff"/>
<path d="M174.295 31.3748V37.1336H172.426C172.235 36.5109 172.038 35.9641 171.835 35.4937C171.631 35.0235 171.422 34.6294 171.206 34.3112C170.989 33.9937 170.751 33.7394 170.491 33.5485C170.23 33.3579 169.922 33.2276 169.566 33.1578C169.21 33.088 168.784 33.0527 168.288 33.0527H162.262V43.0448H166.343C166.902 43.0448 167.341 42.9654 167.659 42.8063C167.976 42.6475 168.241 42.3772 168.45 41.996C168.66 41.6146 168.86 41.0171 169.051 40.2035H170.843V47.526H169.051C168.873 46.763 168.676 46.1881 168.46 45.8002C168.244 45.4125 167.986 45.136 167.688 44.9708C167.389 44.8055 166.941 44.7227 166.343 44.7227H162.262V55.7255H168.193C168.815 55.7255 169.321 55.6714 169.709 55.5633C170.096 55.4555 170.43 55.2711 170.71 55.0104C170.989 54.75 171.237 54.4096 171.454 53.9901C171.67 53.5706 171.851 53.1353 171.997 52.684C172.143 52.2327 172.343 51.5751 172.598 50.7105H174.486L174.123 57.4034H156.466V56.469C157.254 56.2657 157.782 56.0399 158.048 55.7922C158.315 55.5441 158.49 55.1914 158.573 54.7339C158.655 54.2761 158.697 53.5771 158.697 52.6361V36.1421C158.697 35.2648 158.665 34.626 158.601 34.2256C158.538 33.825 158.433 33.5136 158.287 33.2912C158.14 33.0688 157.946 32.8909 157.705 32.7571C157.464 32.6237 157.05 32.4745 156.466 32.3092V31.3748L174.295 31.3748Z" fill="#ffffff"/>
<path d="M205.845 32.3092C205.286 32.4491 204.882 32.5888 204.635 32.7287C204.387 32.8686 204.19 33.0432 204.043 33.2529C203.897 33.4626 203.789 33.7774 203.719 34.1969C203.649 34.6164 203.614 35.2648 203.614 36.1421V52.6361C203.614 53.4881 203.643 54.1111 203.7 54.505C203.757 54.8992 203.853 55.2105 203.986 55.4394C204.12 55.6683 204.316 55.8589 204.577 56.0115C204.838 56.1641 205.26 56.3164 205.845 56.469V57.4034H197.894V56.469C198.619 56.2911 199.12 56.0878 199.4 55.8589C199.68 55.63 199.87 55.2933 199.972 54.8482C200.074 54.4034 200.125 53.666 200.125 52.6361V45.3331C200.125 43.4136 200.153 41.4715 200.211 39.5075C200.268 37.5435 200.334 36.1992 200.411 35.4745H200.087L192.536 54.3715H190.343L183.325 35.1693H183.001C183.065 35.945 183.125 37.3499 183.182 39.3837C183.24 41.4178 183.268 43.509 183.268 45.6571V52.6361C183.268 53.4881 183.297 54.1111 183.354 54.505C183.411 54.8992 183.506 55.2105 183.64 55.4394C183.773 55.6683 183.97 55.8589 184.231 56.0115C184.492 56.1641 184.914 56.3164 185.499 56.469V57.4034H178.539V56.469C179.327 56.2657 179.855 56.0399 180.122 55.7922C180.389 55.5441 180.564 55.1914 180.646 54.7339C180.729 54.2761 180.77 53.5771 180.77 52.6361V36.1421C180.77 35.2648 180.738 34.626 180.675 34.2256C180.611 33.825 180.506 33.5136 180.36 33.2912C180.214 33.0688 180.02 32.8909 179.779 32.7571C179.537 32.6237 179.124 32.4745 178.539 32.3092V31.3748H185.347L192.04 49.9286L199.4 31.3748H205.845V32.3092Z" fill="#ffffff"/>
<path d="M217.027 46.477L211.764 36.695C211.128 35.5125 210.645 34.6674 210.314 34.1589C209.984 33.6505 209.653 33.2501 209.323 32.9576C208.992 32.6651 208.611 32.4491 208.179 32.3092V31.3748H216.302V32.3092C215.107 32.4491 214.51 32.9641 214.51 33.8537C214.51 34.2225 214.595 34.6355 214.767 35.093C214.939 35.5508 215.247 36.1992 215.692 37.0382L219.505 44.3032L223.262 37.6674C223.77 36.7648 224.13 36.0247 224.339 35.4458C224.549 34.8675 224.654 34.3368 224.654 33.8537C224.654 33.3959 224.517 33.037 224.244 32.7763C223.971 32.5159 223.567 32.3602 223.033 32.3092V31.3748H230.26V32.3092C229.739 32.4998 229.281 32.7639 228.887 33.1006C228.493 33.4373 228.093 33.8917 227.686 34.4638C227.279 35.0359 226.682 36.0021 225.894 37.3622L220.593 46.401V52.579C220.593 53.3037 220.631 53.8884 220.707 54.3333C220.783 54.7784 220.91 55.1342 221.088 55.4011C221.266 55.6683 221.501 55.8781 221.794 56.0303C222.086 56.1829 222.544 56.3294 223.167 56.469V57.4034H214.452V56.469C215.063 56.342 215.514 56.2055 215.806 56.0591C216.099 55.913 216.334 55.7032 216.512 55.4298C216.69 55.1565 216.82 54.7975 216.903 54.3524C216.985 53.9076 217.027 53.3163 217.027 52.579V46.477Z" fill="#ffffff"/>
</g>
<defs>
<clipPath id="clip0_69_1200">
<rect width="230.631" height="58" fill="white"/>
</clipPath>
</defs>
</svg>
